<?xml version="1.0" encoding="UTF-8"?>
<svg xmlns="http://www.w3.org/2000/svg" viewBox="0 0 1024 1024" width="1024" height="1024">
  <!-- Spiral Buddy Blue icon: deep navy + electric blue + ice 나선형 -->
  <defs>
    <linearGradient id="bg" x1="0%" y1="0%" x2="100%" y2="100%">
      <stop offset="0%" stop-color="#1c2e54"/>
      <stop offset="45%" stop-color="#2e6bf0"/>
      <stop offset="100%" stop-color="#0a1426"/>
    </linearGradient>
    <radialGradient id="glow" cx="58%" cy="62%" r="62%">
      <stop offset="0%"  stop-color="#a8d2ff" stop-opacity="0.40"/>
      <stop offset="38%" stop-color="#5cb8ff" stop-opacity="0.20"/>
      <stop offset="72%" stop-color="#2563eb" stop-opacity="0.05"/>
      <stop offset="100%" stop-color="#2563eb" stop-opacity="0"/>
    </radialGradient>
    <radialGradient id="coolGlow" cx="32%" cy="24%" r="62%">
      <stop offset="0%" stop-color="#bfe0ff" stop-opacity="0.1"/>
      <stop offset="58%" stop-color="#bfe0ff" stop-opacity="0.025"/>
      <stop offset="100%" stop-color="#bfe0ff" stop-opacity="0"/>
    </radialGradient>
    <linearGradient id="rim" x1="0%" y1="0%" x2="0%" y2="100%">
      <stop offset="0%"  stop-color="#ffffff" stop-opacity="0.24"/>
      <stop offset="40%" stop-color="#ffffff" stop-opacity="0"/>
    </linearGradient>
    <linearGradient id="spiralStroke" x1="18%" y1="4%" x2="83%" y2="96%">
      <stop offset="0%"   stop-color="#8ec8ff"/>
      <stop offset="42%"  stop-color="#ffffff"/>
      <stop offset="72%"  stop-color="#dcecff"/>
      <stop offset="100%" stop-color="#6fb2ff"/>
    </linearGradient>
    <filter id="spiralGlow" x="-20%" y="-20%" width="140%" height="140%">
      <feGaussianBlur in="SourceGraphic" stdDeviation="7" result="blur"/>
      <feMerge>
        <feMergeNode in="blur"/>
        <feMergeNode in="SourceGraphic"/>
      </feMerge>
    </filter>
  </defs>

  <!-- macOS squircle 근사 (rounded square) -->
  <rect x="0" y="0" width="1024" height="1024" rx="220" ry="220" fill="url(#bg)"/>
  <!-- 옵시디언 보석 림 라이트 -->
  <rect x="0" y="0" width="1024" height="1024" rx="220" ry="220" fill="url(#rim)"/>
  <!-- soft brand glow -->
  <circle cx="550" cy="584" r="460" fill="url(#glow)"/>
  <circle cx="394" cy="374" r="340" fill="url(#coolGlow)"/>
  <path d="M 228 258 C 336 136 537 92 699 162 C 814 211 879 312 894 430"
        stroke="#ffffff"
        stroke-width="18"
        stroke-linecap="round"
        fill="none"
        opacity="0.12"/>

  <!-- open spiral (archimedean, 2.35턴) -->
  <path d="M 515.59 452.72 L 517.73 452.24 L 519.91 451.85 L 522.12 451.53 L 524.37 451.30 L 526.65 451.15 L 528.95 451.09 L 531.27 451.11 L 533.61 451.23 L 535.97 451.43 L 538.34 451.72 L 540.72 452.11 L 543.10 452.59 L 545.49 453.17 L 547.87 453.84 L 550.25 454.60 L 552.61 455.46 L 554.96 456.42 L 557.30 457.47 L 559.61 458.62 L 561.90 459.87 L 564.16 461.21 L 566.39 462.64 L 568.58 464.17 L 570.72 465.80 L 572.83 467.51 L 574.88 469.32 L 576.89 471.21 L 578.83 473.20 L 580.72 475.27 L 582.54 477.43 L 584.29 479.67 L 585.98 481.99 L 587.59 484.39 L 589.12 486.86 L 590.57 489.41 L 591.93 492.03 L 593.21 494.72 L 594.40 497.48 L 595.49 500.29 L 596.48 503.17 L 597.38 506.10 L 598.17 509.08 L 598.86 512.11 L 599.44 515.19 L 599.91 518.31 L 600.27 521.46 L 600.52 524.65 L 600.64 527.87 L 600.66 531.11 L 600.55 534.37 L 600.32 537.64 L 599.97 540.93 L 599.50 544.23 L 598.91 547.52 L 598.19 550.82 L 597.34 554.11 L 596.37 557.38 L 595.28 560.64 L 594.05 563.88 L 592.71 567.09 L 591.24 570.27 L 589.64 573.42 L 587.92 576.52 L 586.08 579.58 L 584.11 582.59 L 582.03 585.55 L 579.82 588.44 L 577.50 591.27 L 575.06 594.03 L 572.51 596.71 L 569.85 599.32 L 567.08 601.85 L 564.20 604.28 L 561.22 606.63 L 558.14 608.87 L 554.96 611.02 L 551.69 613.07 L 548.32 615.00 L 544.87 616.82 L 541.33 618.53 L 537.72 620.12 L 534.03 621.58 L 530.27 622.92 L 526.44 624.12 L 522.55 625.20 L 518.60 626.14 L 514.60 626.94 L 510.55 627.60 L 506.46 628.11 L 502.33 628.48 L 498.16 628.70 L 493.97 628.78 L 489.76 628.70 L 485.53 628.47 L 481.29 628.08 L 477.04 627.54 L 472.80 626.85 L 468.56 626.00 L 464.33 624.99 L 460.12 623.82 L 455.93 622.50 L 451.77 621.02 L 447.65 619.38 L 443.57 617.59 L 439.53 615.64 L 435.55 613.54 L 431.63 611.29 L 427.77 608.88 L 423.98 606.33 L 420.27 603.63 L 416.63 600.78 L 413.09 597.80 L 409.64 594.67 L 406.28 591.40 L 403.04 588.00 L 399.90 584.47 L 396.87 580.81 L 393.96 577.03 L 391.18 573.13 L 388.52 569.12 L 386.00 564.99 L 383.62 560.75 L 381.38 556.42 L 379.29 551.98 L 377.35 547.46 L 375.56 542.84 L 373.94 538.15 L 372.47 533.38 L 371.17 528.53 L 370.04 523.62 L 369.08 518.66 L 368.30 513.64 L 367.69 508.57 L 367.26 503.46 L 367.02 498.32 L 366.95 493.15 L 367.08 487.96 L 367.38 482.75 L 367.88 477.54 L 368.56 472.33 L 369.44 467.12 L 370.50 461.92 L 371.76 456.74 L 373.20 451.59 L 374.83 446.48 L 376.65 441.40 L 378.66 436.37 L 380.86 431.40 L 383.24 426.48 L 385.81 421.64 L 388.55 416.87 L 391.48 412.18 L 394.59 407.58 L 397.87 403.08 L 401.32 398.68 L 404.94 394.39 L 408.73 390.21 L 412.68 386.15 L 416.79 382.22 L 421.05 378.43 L 425.46 374.78 L 430.01 371.27 L 434.71 367.91 L 439.54 364.71 L 444.50 361.67 L 449.58 358.80 L 454.79 356.10 L 460.10 353.58 L 465.52 351.24 L 471.05 349.08 L 476.67 347.12 L 482.37 345.35 L 488.16 343.78 L 494.02 342.41 L 499.94 341.25 L 505.93 340.29 L 511.97 339.54 L 518.05 339.01 L 524.18 338.69 L 530.33 338.59 L 536.50 338.71 L 542.69 339.05 L 548.88 339.61 L 555.07 340.40 L 561.25 341.40 L 567.42 342.63 L 573.56 344.08 L 579.66 345.76 L 585.73 347.66 L 591.74 349.78 L 597.69 352.12 L 603.58 354.68 L 609.39 357.45 L 615.13 360.44 L 620.77 363.65 L 626.31 367.06 L 631.75 370.68 L 637.07 374.50 L 642.27 378.53 L 647.34 382.75 L 652.28 387.16 L 657.07 391.76 L 661.72 396.54 L 666.20 401.50 L 670.52 406.64 L 674.67 411.94 L 678.64 417.41 L 682.43 423.03 L 686.03 428.80 L 689.43 434.71 L 692.63 440.76 L 695.63 446.94 L 698.41 453.24 L 700.98 459.66 L 703.32 466.18 L 705.44 472.81 L 707.33 479.53 L 708.98 486.33 L 710.40 493.21 L 711.57 500.16 L 712.50 507.17 L 713.19 514.22 L 713.62 521.32 L 713.81 528.46 L 713.74 535.61 L 713.42 542.79 L 712.84 549.96 L 712.00 557.14 L 710.91 564.31 L 709.56 571.45 L 707.95 578.56 L 706.09 585.63 L 703.97 592.66 L 701.60 599.62 L 698.97 606.52 L 696.09 613.34 L 692.97 620.08 L 689.59 626.72 L 685.97 633.26 L 682.11 639.68 L 678.02 645.98 L 673.69 652.15 L 669.13 658.18 L 664.35 664.07 L 659.34 669.80 L 654.13 675.36 L 648.70 680.75 L 643.07 685.96 L 637.24 690.98 L 631.22 695.81 L 625.01 700.44 L 618.63 704.85 L 612.07 709.05 L 605.35 713.02 L 598.48 716.77 L 591.46 720.28 L 584.29 723.55 L 577.00 726.57 L 569.58 729.34 L 562.05 731.85 L 554.41 734.10 L 546.67 736.09 L 538.85 737.80 L 530.95 739.24 L 522.98 740.41 L 514.96 741.29 L 506.88 741.89 L 498.77 742.21 L 490.62 742.23 L 482.46 741.97 L 474.29 741.42 L 466.13 740.58 L 457.97 739.45 L 449.84 738.03 L 441.75 736.31 L 433.69 734.31 L 425.70 732.01 L 417.76 729.43 L 409.90 726.56 L 402.13 723.40 L 394.45 719.97 L 386.88 716.25 L 379.43 712.26 L 372.10 708.00 L 364.91 703.47 L 357.86 698.67 L 350.97 693.62 L 344.25 688.31 L 337.70 682.75 L 331.33 676.95 L 325.16 670.91 L 319.19 664.64 L 313.43 658.15 L 307.89 651.44 L 302.57 644.52 L 297.49 637.40 L 292.66 630.08 L 288.07 622.58 L 283.74 614.91 L 279.67 607.06 L 275.87 599.06 L 272.35 590.90 L 269.11 582.61 L 266.16 574.19 L 263.50 565.64 L 261.14 556.99 L 259.08 548.23 L 257.33 539.39 L 255.89 530.47 L 254.76 521.48 L 253.95 512.43 L 253.45 503.34 L 253.28 494.21 L 253.43 485.06 L 253.90 475.90 L 254.70 466.74 L 255.83 457.60 L 257.28 448.47 L 259.06 439.38 L 261.16 430.34 L 263.58 421.35 L 266.33 412.44 L 269.40 403.60 L 272.78 394.86 L 276.49 386.22 L 280.50 377.70 L 284.82 369.31 L 289.45 361.05 L 294.38 352.95 L 299.60 345.00 L 305.11 337.23 L 310.91 329.63 L 316.99 322.23 L 323.33 315.04 L 329.95 308.05 L 336.82 301.28 L 343.95 294.75 L 351.31 288.46 L 358.91 282.42 L 366.74 276.64 L 374.79 271.12 L 383.04 265.88 L 391.50 260.93 L 400.14 256.26 L 408.96 251.89 L 417.96 247.83 L 427.11 244.08 L 436.40 240.65 L 445.84 237.53 L 455.40 234.75 L 465.07 232.31 L 474.85 230.20 L 484.72 228.43 L 494.66 227.01 L 504.67 225.93 L 514.74 225.22 L 524.85 224.85 L 534.98 224.84 L 545.13 225.19 L 555.29 225.90 L 565.44 226.97 L 575.56 228.41 L 585.65 230.20 L 595.70 232.35 L 605.68 234.86 L 615.59 237.72 L 625.41 240.94 L 635.13 244.52 L 644.75 248.44 L 654.24 252.71 L 663.59 257.32 L 672.79 262.27 L 681.83 267.55 L 690.70 273.16 L 699.39 279.09 L 707.88 285.34 L 716.16 291.89 L 724.22 298.75 L 732.05 305.91 L 739.64 313.35 L 746.98 321.07 L 754.05 329.06 L 760.85 337.32 L 767.38 345.82 L 773.61 354.57 L 779.54 363.55 L 785.16 372.76 L 790.46 382.18 L 795.44 391.79 L 800.09 401.60 L 804.40 411.59 L 808.35 421.74 L 811.96 432.05 L 815.21 442.50 L 818.09 453.08 L 820.60 463.78 L 822.74 474.58 L 824.50 485.47 L 825.88 496.44 L 826.87 507.47 L 827.48 518.55 L 827.69 529.67 L 827.51 540.82 L 826.93 551.97 L 825.96 563.12 L 824.60 574.25 L 822.84 585.34 L 820.69 596.39 L 818.14 607.38 L 815.20 618.29 L 811.87 629.11 L 808.16 639.84 L 804.06 650.44 L 799.58 660.91 L 794.72 671.24 L 789.50 681.41 L 783.90 691.42 L 777.95 701.23 L 771.64 710.85 L 764.99 720.26"
        stroke="url(#spiralStroke)"
        stroke-width="58"
        stroke-linecap="round"
        stroke-linejoin="round"
        fill="none"
        filter="url(#spiralGlow)"/>

  <!-- calm center -->
  <circle cx="512" cy="512" r="18" fill="#ffffff" opacity="0.9"/>
  <circle cx="512" cy="512" r="38" fill="none" stroke="#ffffff" stroke-width="3" opacity="0.2"/>
</svg>
